<svg xmlns="http://www.w3.org/2000/svg" xmlns:xlink="http://www.w3.org/1999/xlink" version="1.1" width="612" height="792" preserveAspectRatio="xMidYMid meet" viewBox="0 0 612 792">
<text fill="#4a7c7e" xml:space="preserve" transform="matrix(1 0 -0 1 0 792)" font-size="11" font-family="Helvetica, Arial, &apos;Nimbus Sans&apos;, &apos;Liberation Sans&apos;, sans-serif" font-weight="bold"><tspan y="-752" x="50 57.942 61 64.058 67.116 73.231998 79.952999 83.010997 86.673999 93.395">Billed to:</tspan></text>
<text fill="#222222" xml:space="preserve" transform="matrix(1 0 -0 1 0 792)" font-size="13" font-family="Helvetica, Arial, &apos;Nimbus Sans&apos;, &apos;Liberation Sans&apos;, sans-serif" font-weight="bold"><tspan y="-736" x="50 59.386 66.614 70.228 77.45599 84.68399 89.74099 97.68399 101.29799 110.68399 114.29799 126.56999 131.627 138.855">Halvard &#x0026; Wren</tspan></text>
<text fill="#666666" xml:space="preserve" transform="matrix(1 0 -0 1 0 792)" font-size="10" font-family="Helvetica, Arial, &apos;Nimbus Sans&apos;, &apos;Liberation Sans&apos;, sans-serif"><tspan y="-720" x="50 57.22 62.780004 67.78 73.34 78.34 80.56 82.78 85 90.56 93.34 96.119998 102.229999">Nashville, TN</tspan></text>
<text fill="#666666" xml:space="preserve" transform="matrix(1 0 -0 1 0 792)" font-size="10" font-family="Helvetica, Arial, &apos;Nimbus Sans&apos;, &apos;Liberation Sans&apos;, sans-serif"><tspan y="-706" x="50 55.56 61.120004 63.340005 65.560009 71.12 81.270008 86.83 92.39 94.61 99.61 105.17 108.5 114.06 121.28 124.61 130.17 135.73 138.51 144.06999 149.06999 154.62999 162.95999 168.51999 170.73999">hello@halvardwren.example</tspan></text>
<text fill="#222222" xml:space="preserve" transform="matrix(1 0 -0 1 0 792)" font-size="12" font-family="Helvetica, Arial, &apos;Nimbus Sans&apos;, &apos;Liberation Sans&apos;, sans-serif" font-weight="bold"><tspan y="-752" x="455.308 461.98 469.312 473.98 481.312 487.984 495.316 498.652 509.98 516.65206 523.32406 529.99606 537.328 547.99606 555.328">Jordan Wexcombe</tspan></text>
<text fill="#666666" xml:space="preserve" transform="matrix(1 0 -0 1 0 792)" font-size="10" font-family="Helvetica, Arial, &apos;Nimbus Sans&apos;, &apos;Liberation Sans&apos;, sans-serif"><tspan y="-738" x="502.55 509.77 515.33 520.33 525.89 530.89 533.11 535.32998 537.5499 543.1099 545.88998 548.67 554.77999">Nashville, TN</tspan></text>
<text fill="#666666" xml:space="preserve" transform="matrix(1 0 -0 1 0 792)" font-size="10" font-family="Helvetica, Arial, &apos;Nimbus Sans&apos;, &apos;Liberation Sans&apos;, sans-serif"><tspan y="-722" x="464.6 466.82 472.38 475.71 481.27 486.83 492.38999 502.53999 508.09999 513.1 518.66 526.99 532.55 534.76998 540.32998 543.11 548.11 553.67">jordan@example.com</tspan></text>
<text fill="#222222" xml:space="preserve" transform="matrix(1 0 -0 1 0 792)" font-size="30" font-family="Helvetica, Arial, &apos;Nimbus Sans&apos;, &apos;Liberation Sans&apos;, sans-serif" font-weight="bold"><tspan y="-662" x="50 58.34 76.67 93.35 111.68 120.020008 136.70001">Invoice</tspan></text>
<text fill="#4a7c7e" xml:space="preserve" transform="matrix(1 0 -0 1 0 792)" font-size="20" font-family="Helvetica, Arial, &apos;Nimbus Sans&apos;, &apos;Liberation Sans&apos;, sans-serif" font-weight="bold"><tspan y="-664" x="163.38 174.5 180.06 194.5 207.84 218.95999 230.07999 241.19998">#INV1056</tspan></text>
<path transform="matrix(1,0,0,-1,0,792)" stroke-width="3" stroke-linecap="butt" stroke-miterlimit="10" stroke-linejoin="miter" fill="none" stroke="#222222" d="M50 652H562"/>
<text fill="#333333" xml:space="preserve" transform="matrix(1 0 -0 1 0 792)" font-size="11" font-family="Helvetica, Arial, &apos;Nimbus Sans&apos;, &apos;Liberation Sans&apos;, sans-serif" font-weight="bold"><tspan y="-634" x="50 58.558 64.673999 68.337 75.058 81.779 87.895 92.173999 95.231998 103.78999 110.510997 114.78999">October work</tspan></text>
<text fill="#222222" xml:space="preserve" transform="matrix(1 0 -0 1 0 792)" font-size="10" font-family="Helvetica, Arial, &apos;Nimbus Sans&apos;, &apos;Liberation Sans&apos;, sans-serif" font-weight="bold"><tspan y="-610" x="50 57.22 60 62.78 65.56 68.34 74.45 80.56 83.34 89.45 95.009998 98.34 103.899997">Billing date:</tspan></text>
<text fill="#333333" xml:space="preserve" transform="matrix(1 0 -0 1 0 792)" font-size="11" font-family="Helvetica, Arial, &apos;Nimbus Sans&apos;, &apos;Liberation Sans&apos;, sans-serif"><tspan y="-596" x="50 58.558 64.058 67.116 70.173999 76.28999 82.40599 85.46399 88.52199 94.637989 100.75398 106.86998">Oct 05, 2026</tspan></text>
<path transform="matrix(1,0,0,-1,0,792)" d="M180 604H562V626H180Z" fill="#4a7c7e" fill-rule="evenodd"/>
<text fill="#ffffff" xml:space="preserve" transform="matrix(1 0 -0 1 0 792)" font-size="9" font-family="Helvetica, Arial, &apos;Nimbus Sans&apos;, &apos;Liberation Sans&apos;, sans-serif" font-weight="bold"><tspan y="-612" x="188 194.498 200.501 206.50402 213.00202 219.50002 222.00202 228.00502 233.50402 236.00601 243.00801">DESCRIPTION</tspan></text>
<text fill="#ffffff" xml:space="preserve" transform="matrix(1 0 -0 1 0 792)" font-size="9" font-family="Helvetica, Arial, &apos;Nimbus Sans&apos;, &apos;Liberation Sans&apos;, sans-serif" font-weight="bold"><tspan y="-612" x="429.0005 436.0025 442.5005 448.99848 455.49647 460.99546 463.49748 468.99647">QUANTITY</tspan></text>
<text fill="#ffffff" xml:space="preserve" transform="matrix(1 0 -0 1 0 792)" font-size="9" font-family="Helvetica, Arial, &apos;Nimbus Sans&apos;, &apos;Liberation Sans&apos;, sans-serif" font-weight="bold"><tspan y="-612" x="512.508 519.006 526.503 533.505 540.003 546.501">AMOUNT</tspan></text>
<path transform="matrix(1,0,0,-1,0,792)" stroke-width="1" stroke-linecap="butt" stroke-miterlimit="10" stroke-linejoin="miter" fill="none" stroke="#4a7c7e" d="M180 604H562"/>
<text fill="#333333" xml:space="preserve" transform="matrix(1 0 -0 1 0 792)" font-size="10" font-family="Helvetica, Arial, &apos;Nimbus Sans&apos;, &apos;Liberation Sans&apos;, sans-serif" font-weight="bold"><tspan y="-590" x="188 194.67 198.56 204.67 207.45 213.01 218.56999 221.9 224.68 232.45999 238.56999 242.45999">Project work</tspan></text>
<text fill="#333333" xml:space="preserve" transform="matrix(1 0 -0 1 0 792)" font-size="10" font-family="Helvetica, Arial, &apos;Nimbus Sans&apos;, &apos;Liberation Sans&apos;, sans-serif" font-weight="bold"><tspan y="-590" x="446.44 452">16</tspan></text>
<text fill="#333333" xml:space="preserve" transform="matrix(1 0 -0 1 0 792)" font-size="10" font-family="Helvetica, Arial, &apos;Nimbus Sans&apos;, &apos;Liberation Sans&apos;, sans-serif" font-weight="bold"><tspan y="-590" x="507.52 513.08 518.64 521.42007 526.98007 532.54006 538.10006 540.88009 546.44009">$1,200.00</tspan></text>
<text fill="#333333" xml:space="preserve" transform="matrix(1 0 -0 1 0 792)" font-size="10" font-family="Helvetica, Arial, &apos;Nimbus Sans&apos;, &apos;Liberation Sans&apos;, sans-serif" font-weight="bold"><tspan y="-568" x="188 195.22 200.78 206.34 209.12 214.68 217.45999 223.56999 229.68">Revisions</tspan></text>
<text fill="#333333" xml:space="preserve" transform="matrix(1 0 -0 1 0 792)" font-size="10" font-family="Helvetica, Arial, &apos;Nimbus Sans&apos;, &apos;Liberation Sans&apos;, sans-serif" font-weight="bold"><tspan y="-568" x="449.22">4</tspan></text>
<text fill="#333333" xml:space="preserve" transform="matrix(1 0 -0 1 0 792)" font-size="10" font-family="Helvetica, Arial, &apos;Nimbus Sans&apos;, &apos;Liberation Sans&apos;, sans-serif" font-weight="bold"><tspan y="-568" x="515.86 521.42 526.98 532.54 538.1 540.88 546.44">$300.00</tspan></text>
<path transform="matrix(1,0,0,-1,0,792)" stroke-width=".5" stroke-linecap="butt" stroke-miterlimit="10" stroke-linejoin="miter" fill="none" stroke="#cccccc" d="M180 604H562"/>
<path transform="matrix(1,0,0,-1,0,792)" stroke-width=".5" stroke-linecap="butt" stroke-miterlimit="10" stroke-linejoin="miter" fill="none" stroke="#cccccc" d="M180 582H562"/>
<path transform="matrix(1,0,0,-1,0,792)" stroke-width=".5" stroke-linecap="butt" stroke-miterlimit="10" stroke-linejoin="miter" fill="none" stroke="#cccccc" d="M180 560H562"/>
<path transform="matrix(1,0,0,-1,0,792)" stroke-width=".5" stroke-linecap="butt" stroke-miterlimit="10" stroke-linejoin="miter" fill="none" stroke="#cccccc" d="M180 604V560"/>
<path transform="matrix(1,0,0,-1,0,792)" stroke-width=".5" stroke-linecap="butt" stroke-miterlimit="10" stroke-linejoin="miter" fill="none" stroke="#cccccc" d="M422 604V560"/>
<path transform="matrix(1,0,0,-1,0,792)" stroke-width=".5" stroke-linecap="butt" stroke-miterlimit="10" stroke-linejoin="miter" fill="none" stroke="#cccccc" d="M562 604V560"/>
<text fill="#4a7c7e" xml:space="preserve" transform="matrix(1 0 -0 1 0 792)" font-size="10" font-family="Helvetica, Arial, &apos;Nimbus Sans&apos;, &apos;Liberation Sans&apos;, sans-serif" font-weight="bold"><tspan y="-544" x="50 57.22 60 62.78 65.56 68.34 74.45 80.56 83.34 89.45 95.56 101.119998 103.899997 110.009998 115.56999 118.899997 124.45999">Billing due date:</tspan></text>
<text fill="#4a7c7e" xml:space="preserve" transform="matrix(1 0 -0 1 0 792)" font-size="11" font-family="Helvetica, Arial, &apos;Nimbus Sans&apos;, &apos;Liberation Sans&apos;, sans-serif" font-weight="bold"><tspan y="-530" x="50 57.942 64.663 70.779 73.837 79.952999 86.06899 89.12699 92.18499 98.30099 104.416988 110.53298">Nov 04, 2026</tspan></text>
<path transform="matrix(1,0,0,-1,0,792)" stroke-width=".5" stroke-linecap="butt" stroke-miterlimit="10" stroke-linejoin="miter" fill="none" stroke="#cccccc" d="M330 540H562V560H330Z"/>
<text fill="#333333" xml:space="preserve" transform="matrix(1 0 -0 1 0 792)" font-size="10" font-family="Helvetica, Arial, &apos;Nimbus Sans&apos;, &apos;Liberation Sans&apos;, sans-serif"><tspan y="-546" x="340 346.67 352.23 357.79 360.57 366.13 368.91 374.47">Subtotal</tspan></text>
<text fill="#333333" xml:space="preserve" transform="matrix(1 0 -0 1 0 792)" font-size="10" font-family="Helvetica, Arial, &apos;Nimbus Sans&apos;, &apos;Liberation Sans&apos;, sans-serif"><tspan y="-546" x="507.52 513.08 518.64 521.42007 526.98007 532.54006 538.10006 540.88009 546.44009">$1,500.00</tspan></text>
<path transform="matrix(1,0,0,-1,0,792)" d="M330 518H562V540H330Z" fill="#4a7c7e" fill-rule="evenodd"/>
<text fill="#ffffff" xml:space="preserve" transform="matrix(1 0 -0 1 0 792)" font-size="10" font-family="Helvetica, Arial, &apos;Nimbus Sans&apos;, &apos;Liberation Sans&apos;, sans-serif" font-weight="bold"><tspan y="-525" x="340 347.22 354.44 360.55 367.77 374.99 382.21 388.88 391.66 398.88 406.1">BALANCE DUE</tspan></text>
<text fill="#ffffff" xml:space="preserve" transform="matrix(1 0 -0 1 0 792)" font-size="10" font-family="Helvetica, Arial, &apos;Nimbus Sans&apos;, &apos;Liberation Sans&apos;, sans-serif" font-weight="bold"><tspan y="-525" x="507.52 513.08 518.64 521.42007 526.98007 532.54006 538.10006 540.88009 546.44009">$1,500.00</tspan></text>
<text fill="#666666" xml:space="preserve" transform="matrix(1 0 -0 1 0 792)" font-size="9" font-family="Helvetica, Arial, &apos;Nimbus Sans&apos;, &apos;Liberation Sans&apos;, sans-serif"><tspan y="-468" x="314.41 319.909 324.913 329.917 334.921 339.421 343.921 346.423 348.92503 353.92903 356.92604 359.42805 361.93006 366.93406 371.93806 374.44007 380.93806 385.94206 388.93907 393.43907 395.94108 404.94108 407.44309 412.44709 417.45109 421.95109 429.4481 434.4521 439.4561 441.9581 444.4601 449.4641 453.9641 456.46614 461.47013 466.47413 471.47813 475.97813 478.48014 480.98216 483.97917 488.98316 493.98716 498.48716 500.98918 505.99317 508.99018 511.4922 517.9902 519.98818 522.4902 527.4942 529.4922 534.4962 536.9982 539.50027 544.5043 547.5013 554.9983 559.4983">Thanks for the work &#x2014; payment by bank transfer within terms.</tspan></text>
<text fill="#4a7c7e" xml:space="preserve" transform="matrix(1 0 -0 1 0 792)" font-size="11" font-family="Helvetica, Arial, &apos;Nimbus Sans&apos;, &apos;Liberation Sans&apos;, sans-serif" font-weight="bold"><tspan y="-448" x="407.967 414.68803 421.40904 427.52503 434.24604 440.36204 443.42005 449.53605 456.25706 462.97807 466.03608 469.69908 476.42008 480.69908 483.75709 489.87309 496.5941 503.3151 507.5941 510.6521 517.3731 524.0941 530.21017 533.2681 539.98916 546.10519 552.2212 558.3372">Thank you for your business!</tspan></text>
</svg>
