<svg xmlns="http://www.w3.org/2000/svg" xmlns:xlink="http://www.w3.org/1999/xlink" version="1.1" width="612" height="792" preserveAspectRatio="xMidYMid meet" viewBox="0 0 612 792">
<text fill="#999999" xml:space="preserve" transform="matrix(1 0 -0 1 0 792)" font-size="11" font-family="Helvetica, Arial, &apos;Nimbus Sans&apos;, &apos;Liberation Sans&apos;, sans-serif" font-weight="bold"><tspan y="-752" x="283.384 286.44203 294.384 301.721 310.27903 313.33705 321.27903">INVOICE</tspan></text>
<text fill="#bbbbbb" xml:space="preserve" transform="matrix(1 0 -0 1 0 792)" font-size="11" font-family="Helvetica, Arial, &apos;Nimbus Sans&apos;, &apos;Liberation Sans&apos;, sans-serif"><tspan y="-736" x="284.5995 287.6575 295.5995 302.9365 309.0525 315.1685 321.2845">INV1056</tspan></text>
<text fill="#333333" xml:space="preserve" transform="matrix(1 0 -0 1 0 792)" font-size="13" font-family="Helvetica, Arial, &apos;Nimbus Sans&apos;, &apos;Liberation Sans&apos;, sans-serif" font-weight="bold"><tspan y="-708" x="50 57.228 65.171 70.228 78.171 85.399 93.342 96.956 109.228008 116.45601 123.684009 130.912 138.855 150.412 158.355">Jordan Wexcombe</tspan></text>
<text fill="#666666" xml:space="preserve" transform="matrix(1 0 -0 1 0 792)" font-size="10" font-family="Helvetica, Arial, &apos;Nimbus Sans&apos;, &apos;Liberation Sans&apos;, sans-serif"><tspan y="-692" x="50 57.22 62.780004 67.78 73.34 78.34 80.56 82.78 85 90.56 93.34 96.119998 102.229999">Nashville, TN</tspan></text>
<text fill="#666666" xml:space="preserve" transform="matrix(1 0 -0 1 0 792)" font-size="10" font-family="Helvetica, Arial, &apos;Nimbus Sans&apos;, &apos;Liberation Sans&apos;, sans-serif"><tspan y="-678" x="50 52.22 57.780004 61.11 66.67 72.229999 77.78999 87.939998 93.49999 98.49999 104.05999 112.38999 117.94999 120.16999 125.72999 128.51 133.51 139.06999">jordan@example.com</tspan></text>
<text fill="#bbbbbb" xml:space="preserve" transform="matrix(1 0 -0 1 0 792)" font-size="8" font-family="Helvetica, Arial, &apos;Nimbus Sans&apos;, &apos;Liberation Sans&apos;, sans-serif" font-weight="bold"><tspan y="-708" x="422 427.776 433.552 438.44">DATE</tspan></text>
<text fill="#666666" xml:space="preserve" transform="matrix(1 0 -0 1 0 792)" font-size="11" font-family="Helvetica, Arial, &apos;Nimbus Sans&apos;, &apos;Liberation Sans&apos;, sans-serif"><tspan y="-708" x="499.014 507.57203 513.072 516.13 519.188 525.304 531.42007 534.478 537.536 543.65206 549.76809 555.8841">Oct 05, 2026</tspan></text>
<text fill="#bbbbbb" xml:space="preserve" transform="matrix(1 0 -0 1 0 792)" font-size="8" font-family="Helvetica, Arial, &apos;Nimbus Sans&apos;, &apos;Liberation Sans&apos;, sans-serif" font-weight="bold"><tspan y="-688" x="422 427.776 433.552">DUE</tspan></text>
<text fill="#666666" xml:space="preserve" transform="matrix(1 0 -0 1 0 792)" font-size="11" font-family="Helvetica, Arial, &apos;Nimbus Sans&apos;, &apos;Liberation Sans&apos;, sans-serif"><tspan y="-688" x="496.572 504.51399 510.62998 516.13 519.188 525.304 531.42007 534.478 537.536 543.65206 549.76809 555.8841">Nov 04, 2026</tspan></text>
<text fill="#bbbbbb" xml:space="preserve" transform="matrix(1 0 -0 1 0 792)" font-size="8" font-family="Helvetica, Arial, &apos;Nimbus Sans&apos;, &apos;Liberation Sans&apos;, sans-serif" font-weight="bold"><tspan y="-668" x="422 427.336 433.112 439.336 443.784 449.12 454.896">PROJECT</tspan></text>
<text fill="#666666" xml:space="preserve" transform="matrix(1 0 -0 1 0 792)" font-size="11" font-family="Helvetica, Arial, &apos;Nimbus Sans&apos;, &apos;Liberation Sans&apos;, sans-serif"><tspan y="-668" x="496.594 505.152 510.652 513.71 519.82608 525.9421 532.0581 535.7211 538.7791 546.7211 552.83718 556.5002">October work</tspan></text>
<path transform="matrix(1,0,0,-1,0,792)" stroke-width=".5" stroke-linecap="butt" stroke-miterlimit="10" stroke-linejoin="miter" fill="none" stroke="#e0e0e0" d="M50 632H562"/>
<text fill="#bbbbbb" xml:space="preserve" transform="matrix(1 0 -0 1 0 792)" font-size="8" font-family="Helvetica, Arial, &apos;Nimbus Sans&apos;, &apos;Liberation Sans&apos;, sans-serif" font-weight="bold"><tspan y="-614" x="50 55.776 58 62.888 67.776 70 74.888">BILL TO</tspan></text>
<text fill="#333333" xml:space="preserve" transform="matrix(1 0 -0 1 0 792)" font-size="13" font-family="Helvetica, Arial, &apos;Nimbus Sans&apos;, &apos;Liberation Sans&apos;, sans-serif" font-weight="bold"><tspan y="-596" x="50 59.386 66.614 70.228 77.45599 84.68399 89.74099 97.68399 101.29799 110.68399 114.29799 126.56999 131.627 138.855">Halvard &#x0026; Wren</tspan></text>
<text fill="#666666" xml:space="preserve" transform="matrix(1 0 -0 1 0 792)" font-size="10" font-family="Helvetica, Arial, &apos;Nimbus Sans&apos;, &apos;Liberation Sans&apos;, sans-serif"><tspan y="-578" x="50 57.22 62.780004 67.78 73.34 78.34 80.56 82.78 85 90.56 93.34 96.119998 102.229999">Nashville, TN</tspan></text>
<text fill="#666666" xml:space="preserve" transform="matrix(1 0 -0 1 0 792)" font-size="10" font-family="Helvetica, Arial, &apos;Nimbus Sans&apos;, &apos;Liberation Sans&apos;, sans-serif"><tspan y="-564" x="50 55.56 61.120004 63.340005 65.560009 71.12 81.270008 86.83 92.39 94.61 99.61 105.17 108.5 114.06 121.28 124.61 130.17 135.73 138.51 144.06999 149.06999 154.62999 162.95999 168.51999 170.73999">hello@halvardwren.example</tspan></text>
<text fill="#bbbbbb" xml:space="preserve" transform="matrix(1 0 -0 1 0 792)" font-size="9" font-family="Helvetica, Arial, &apos;Nimbus Sans&apos;, &apos;Liberation Sans&apos;, sans-serif" font-weight="bold"><tspan y="-530" x="50 56.498 62.501 68.504 75.002 81.5 84.002 90.005 95.504 98.006 105.007999">DESCRIPTION</tspan></text>
<text fill="#bbbbbb" xml:space="preserve" transform="matrix(1 0 -0 1 0 792)" font-size="9" font-family="Helvetica, Arial, &apos;Nimbus Sans&apos;, &apos;Liberation Sans&apos;, sans-serif" font-weight="bold"><tspan y="-530" x="355.502 362 368.498 373.99699">RATE</tspan></text>
<text fill="#bbbbbb" xml:space="preserve" transform="matrix(1 0 -0 1 0 792)" font-size="9" font-family="Helvetica, Arial, &apos;Nimbus Sans&apos;, &apos;Liberation Sans&apos;, sans-serif" font-weight="bold"><tspan y="-530" x="431.496 438.49803 443.997">QTY</tspan></text>
<text fill="#bbbbbb" xml:space="preserve" transform="matrix(1 0 -0 1 0 792)" font-size="9" font-family="Helvetica, Arial, &apos;Nimbus Sans&apos;, &apos;Liberation Sans&apos;, sans-serif" font-weight="bold"><tspan y="-530" x="522.508 529.006 536.503 543.505 550.003 556.501">AMOUNT</tspan></text>
<path transform="matrix(1,0,0,-1,0,792)" stroke-width=".5" stroke-linecap="butt" stroke-miterlimit="10" stroke-linejoin="miter" fill="none" stroke="#e0e0e0" d="M50 522H562"/>
<text fill="#333333" xml:space="preserve" transform="matrix(1 0 -0 1 0 792)" font-size="10" font-family="Helvetica, Arial, &apos;Nimbus Sans&apos;, &apos;Liberation Sans&apos;, sans-serif" font-weight="bold"><tspan y="-504" x="50 56.670003 60.56 66.67 69.45 75.009998 80.56999 83.899997 86.67999 94.45999 100.56999 104.45999">Project work</tspan></text>
<text fill="#666666" xml:space="preserve" transform="matrix(1 0 -0 1 0 792)" font-size="10" font-family="Helvetica, Arial, &apos;Nimbus Sans&apos;, &apos;Liberation Sans&apos;, sans-serif"><tspan y="-504" x="349.42 354.98 360.54 366.1 368.88 374.44">$75.00</tspan></text>
<text fill="#666666" xml:space="preserve" transform="matrix(1 0 -0 1 0 792)" font-size="10" font-family="Helvetica, Arial, &apos;Nimbus Sans&apos;, &apos;Liberation Sans&apos;, sans-serif"><tspan y="-504" x="438.88 444.44">16</tspan></text>
<text fill="#666666" xml:space="preserve" transform="matrix(1 0 -0 1 0 792)" font-size="10" font-family="Helvetica, Arial, &apos;Nimbus Sans&apos;, &apos;Liberation Sans&apos;, sans-serif"><tspan y="-504" x="517.52 523.08 528.64 531.42007 536.98007 542.54006 548.10006 550.88009 556.44009">$1,200.00</tspan></text>
<path transform="matrix(1,0,0,-1,0,792)" stroke-width=".3" stroke-linecap="butt" stroke-miterlimit="10" stroke-linejoin="miter" fill="none" stroke="#f0f0f0" d="M50 480H562"/>
<text fill="#333333" xml:space="preserve" transform="matrix(1 0 -0 1 0 792)" font-size="10" font-family="Helvetica, Arial, &apos;Nimbus Sans&apos;, &apos;Liberation Sans&apos;, sans-serif" font-weight="bold"><tspan y="-462" x="50 57.22 62.780004 68.340007 71.12 76.68 79.46 85.57 91.68">Revisions</tspan></text>
<text fill="#666666" xml:space="preserve" transform="matrix(1 0 -0 1 0 792)" font-size="10" font-family="Helvetica, Arial, &apos;Nimbus Sans&apos;, &apos;Liberation Sans&apos;, sans-serif"><tspan y="-462" x="349.42 354.98 360.54 366.1 368.88 374.44">$75.00</tspan></text>
<text fill="#666666" xml:space="preserve" transform="matrix(1 0 -0 1 0 792)" font-size="10" font-family="Helvetica, Arial, &apos;Nimbus Sans&apos;, &apos;Liberation Sans&apos;, sans-serif"><tspan y="-462" x="444.44">4</tspan></text>
<text fill="#666666" xml:space="preserve" transform="matrix(1 0 -0 1 0 792)" font-size="10" font-family="Helvetica, Arial, &apos;Nimbus Sans&apos;, &apos;Liberation Sans&apos;, sans-serif"><tspan y="-462" x="525.86 531.42 536.98 542.54 548.1 550.88 556.44">$300.00</tspan></text>
<path transform="matrix(1,0,0,-1,0,792)" stroke-width=".3" stroke-linecap="butt" stroke-miterlimit="10" stroke-linejoin="miter" fill="none" stroke="#f0f0f0" d="M50 438H562"/>
<text fill="#666666" xml:space="preserve" transform="matrix(1 0 -0 1 0 792)" font-size="11" font-family="Helvetica, Arial, &apos;Nimbus Sans&apos;, &apos;Liberation Sans&apos;, sans-serif"><tspan y="-416" x="360 367.337 373.453 379.569 382.627 388.743 391.80104 397.91703">Subtotal</tspan></text>
<text fill="#666666" xml:space="preserve" transform="matrix(1 0 -0 1 0 792)" font-size="11" font-family="Helvetica, Arial, &apos;Nimbus Sans&apos;, &apos;Liberation Sans&apos;, sans-serif"><tspan y="-416" x="513.072 519.18807 525.3041 528.36209 534.4781 540.5941 546.71017 549.7681 555.88418">$1,500.00</tspan></text>
<path transform="matrix(1,0,0,-1,0,792)" stroke-width=".5" stroke-linecap="butt" stroke-miterlimit="10" stroke-linejoin="miter" fill="none" stroke="#e0e0e0" d="M360 402H562"/>
<text fill="#333333" xml:space="preserve" transform="matrix(1 0 -0 1 0 792)" font-size="14" font-family="Helvetica, Arial, &apos;Nimbus Sans&apos;, &apos;Liberation Sans&apos;, sans-serif" font-weight="bold"><tspan y="-384" x="360 370.108 377.892 381.784 389.568 398.12199 405.90599 413.68998 417.58198 427.68998 436.24397">Balance Due</tspan></text>
<text fill="#333333" xml:space="preserve" transform="matrix(1 0 -0 1 0 792)" font-size="14" font-family="Helvetica, Arial, &apos;Nimbus Sans&apos;, &apos;Liberation Sans&apos;, sans-serif" font-weight="bold"><tspan y="-384" x="499.728 507.512 515.296 519.18807 526.97207 534.75607 542.54006 546.43209 554.21609">$1,500.00</tspan></text>
<text fill="#999999" xml:space="preserve" transform="matrix(1 0 -0 1 0 792)" font-size="9" font-family="Helvetica, Arial, &apos;Nimbus Sans&apos;, &apos;Liberation Sans&apos;, sans-serif"><tspan y="-344" x="50 55.499 60.503004 65.507 70.511 75.011 79.511 82.013 84.515 89.519 92.516 95.018 97.52 102.523998 107.52799 110.02999 116.52799 121.53199 124.52899 129.02899 131.53099 140.53099 143.03299 148.03699 153.04099 157.54099 165.03798 170.04198 175.04598 177.54798 180.04998 185.05397 189.55397 192.05597 197.05997 202.06397 207.06797 211.56797 214.06996 216.57196 219.56896 224.57295 229.57695 234.07695 236.57895 241.58295 244.57994 247.08194 253.57994 255.57794 258.07997 263.08396 265.08195 270.08595 272.58796 275.08998 280.09397 283.09098 290.58799 295.08799">Thanks for the work &#x2014; payment by bank transfer within terms.</tspan></text>
</svg>
