<svg xmlns="http://www.w3.org/2000/svg" xmlns:xlink="http://www.w3.org/1999/xlink" version="1.1" width="612" height="792" preserveAspectRatio="xMidYMid meet" viewBox="0 0 612 792">
<path transform="matrix(1,0,0,-1,0,792)" d="M0 787H612V792H0Z" fill="#4a7c7e" fill-rule="evenodd"/>
<text fill="#222222" xml:space="preserve" transform="matrix(1 0 -0 1 0 792)" font-size="16" font-family="Helvetica, Arial, &apos;Nimbus Sans&apos;, &apos;Liberation Sans&apos;, sans-serif" font-weight="bold"><tspan y="-744" x="50 58.896 68.672 74.895999 84.672 93.568 103.344 107.792 122.896 131.792 140.688 149.584 159.36 173.584 183.36">Jordan Wexcombe</tspan></text>
<text fill="#666666" xml:space="preserve" transform="matrix(1 0 -0 1 0 792)" font-size="10" font-family="Helvetica, Arial, &apos;Nimbus Sans&apos;, &apos;Liberation Sans&apos;, sans-serif"><tspan y="-726" x="50 57.22 62.780004 67.78 73.34 78.34 80.56 82.78 85 90.56 93.34 96.119998 102.229999">Nashville, TN</tspan></text>
<text fill="#666666" xml:space="preserve" transform="matrix(1 0 -0 1 0 792)" font-size="10" font-family="Helvetica, Arial, &apos;Nimbus Sans&apos;, &apos;Liberation Sans&apos;, sans-serif"><tspan y="-698" x="50 52.22 57.780004 61.11 66.67 72.229999 77.78999 87.939998 93.49999 98.49999 104.05999 112.38999 117.94999 120.16999 125.72999 128.51 133.51 139.06999">jordan@example.com</tspan></text>
<text fill="#333333" xml:space="preserve" transform="matrix(1 0 -0 1 0 792)" font-size="9" font-family="Helvetica, Arial, &apos;Nimbus Sans&apos;, &apos;Liberation Sans&apos;, sans-serif" font-weight="bold"><tspan y="-750" x="503.986 510.988 515.992 518.989 524.48806 529.98709 534.9911 538.49209 540.9941 547.9961 553.4951 556.9961">October work</tspan></text>
<text fill="#666666" xml:space="preserve" transform="matrix(1 0 -0 1 0 792)" font-size="11" font-family="Helvetica, Arial, &apos;Nimbus Sans&apos;, &apos;Liberation Sans&apos;, sans-serif"><tspan y="-734" x="519.199 522.25698 530.199 537.53598 543.652 549.768 555.88406">INV1056</tspan></text>
<text fill="#333333" xml:space="preserve" transform="matrix(1 0 -0 1 0 792)" font-size="8" font-family="Helvetica, Arial, &apos;Nimbus Sans&apos;, &apos;Liberation Sans&apos;, sans-serif" font-weight="bold"><tspan y="-714" x="540.224 546 551.776 556.664">DATE</tspan></text>
<text fill="#333333" xml:space="preserve" transform="matrix(1 0 -0 1 0 792)" font-size="11" font-family="Helvetica, Arial, &apos;Nimbus Sans&apos;, &apos;Liberation Sans&apos;, sans-serif"><tspan y="-700" x="499.014 507.57203 513.072 516.13 519.188 525.304 531.42007 534.478 537.536 543.65206 549.76809 555.8841">Oct 05, 2026</tspan></text>
<text fill="#333333" xml:space="preserve" transform="matrix(1 0 -0 1 0 792)" font-size="8" font-family="Helvetica, Arial, &apos;Nimbus Sans&apos;, &apos;Liberation Sans&apos;, sans-serif" font-weight="bold"><tspan y="-680" x="545.112 550.888 556.664">DUE</tspan></text>
<text fill="#333333" xml:space="preserve" transform="matrix(1 0 -0 1 0 792)" font-size="11" font-family="Helvetica, Arial, &apos;Nimbus Sans&apos;, &apos;Liberation Sans&apos;, sans-serif"><tspan y="-666" x="496.572 504.51399 510.62998 516.13 519.188 525.304 531.42007 534.478 537.536 543.65206 549.76809 555.8841">Nov 04, 2026</tspan></text>
<text fill="#333333" xml:space="preserve" transform="matrix(1 0 -0 1 0 792)" font-size="8" font-family="Helvetica, Arial, &apos;Nimbus Sans&apos;, &apos;Liberation Sans&apos;, sans-serif" font-weight="bold"><tspan y="-646" x="503.784 509.56 515.336 520.224 526 531.776 537.552 542.888 545.112 550.888 556.664">BALANCE DUE</tspan></text>
<text fill="#333333" xml:space="preserve" transform="matrix(1 0 -0 1 0 792)" font-size="11" font-family="Helvetica, Arial, &apos;Nimbus Sans&apos;, &apos;Liberation Sans&apos;, sans-serif"><tspan y="-632" x="486.793 494.735 502.072 510.01399 513.07199 519.188 525.304 528.362 534.478 540.59408 546.7101 549.76809 555.8841">USD $1,500.00</tspan></text>
<path transform="matrix(1,0,0,-1,0,792)" stroke-width=".75" stroke-linecap="butt" stroke-miterlimit="10" stroke-linejoin="miter" fill="none" stroke="#4a7c7e" d="M50 612H562"/>
<text fill="#333333" xml:space="preserve" transform="matrix(1 0 -0 1 0 792)" font-size="8" font-family="Helvetica, Arial, &apos;Nimbus Sans&apos;, &apos;Liberation Sans&apos;, sans-serif" font-weight="bold"><tspan y="-594" x="50 55.776 58 62.888 67.776 70 74.888">BILL TO</tspan></text>
<text fill="#222222" xml:space="preserve" transform="matrix(1 0 -0 1 0 792)" font-size="14" font-family="Helvetica, Arial, &apos;Nimbus Sans&apos;, &apos;Liberation Sans&apos;, sans-serif" font-weight="bold"><tspan y="-574" x="50 60.108 67.892009 71.784008 79.56801 87.35201 92.79801 101.35201 105.24401 115.35201 119.24401 132.46 137.906 145.69">Halvard &#x0026; Wren</tspan></text>
<text fill="#666666" xml:space="preserve" transform="matrix(1 0 -0 1 0 792)" font-size="10" font-family="Helvetica, Arial, &apos;Nimbus Sans&apos;, &apos;Liberation Sans&apos;, sans-serif"><tspan y="-552" x="50 57.22 62.780004 67.78 73.34 78.34 80.56 82.78 85 90.56 93.34 96.119998 102.229999">Nashville, TN</tspan></text>
<text fill="#666666" xml:space="preserve" transform="matrix(1 0 -0 1 0 792)" font-size="10" font-family="Helvetica, Arial, &apos;Nimbus Sans&apos;, &apos;Liberation Sans&apos;, sans-serif"><tspan y="-538" x="50 55.56 61.120004 63.340005 65.560009 71.12 81.270008 86.83 92.39 94.61 99.61 105.17 108.5 114.06 121.28 124.61 130.17 135.73 138.51 144.06999 149.06999 154.62999 162.95999 168.51999 170.73999">hello@halvardwren.example</tspan></text>
<path transform="matrix(1,0,0,-1,0,792)" stroke-width="1" stroke-linecap="butt" stroke-miterlimit="10" stroke-linejoin="miter" fill="none" stroke="#4a7c7e" d="M50 504H562"/>
<text fill="#333333" xml:space="preserve" transform="matrix(1 0 -0 1 0 792)" font-size="8" font-family="Helvetica, Arial, &apos;Nimbus Sans&apos;, &apos;Liberation Sans&apos;, sans-serif" font-weight="bold"><tspan y="-488" x="50 55.776 61.112 66.448 72.224 78 80.224 85.56 90.448 92.672 98.895999">DESCRIPTION</tspan></text>
<text fill="#333333" xml:space="preserve" transform="matrix(1 0 -0 1 0 792)" font-size="8" font-family="Helvetica, Arial, &apos;Nimbus Sans&apos;, &apos;Liberation Sans&apos;, sans-serif" font-weight="bold"><tspan y="-488" x="368.224 374 379.776 384.664">RATE</tspan></text>
<text fill="#333333" xml:space="preserve" transform="matrix(1 0 -0 1 0 792)" font-size="8" font-family="Helvetica, Arial, &apos;Nimbus Sans&apos;, &apos;Liberation Sans&apos;, sans-serif" font-weight="bold"><tspan y="-488" x="443.552 449.776 454.664">QTY</tspan></text>
<text fill="#333333" xml:space="preserve" transform="matrix(1 0 -0 1 0 792)" font-size="8" font-family="Helvetica, Arial, &apos;Nimbus Sans&apos;, &apos;Liberation Sans&apos;, sans-serif" font-weight="bold"><tspan y="-488" x="526.896 532.672 539.336 545.56 551.336 557.112">AMOUNT</tspan></text>
<path transform="matrix(1,0,0,-1,0,792)" stroke-width="1" stroke-linecap="butt" stroke-miterlimit="10" stroke-linejoin="miter" fill="none" stroke="#4a7c7e" d="M50 478H562"/>
<text fill="#333333" xml:space="preserve" transform="matrix(1 0 -0 1 0 792)" font-size="10" font-family="Helvetica, Arial, &apos;Nimbus Sans&apos;, &apos;Liberation Sans&apos;, sans-serif" font-weight="bold"><tspan y="-462" x="50 56.670003 60.56 66.67 69.45 75.009998 80.56999 83.899997 86.67999 94.45999 100.56999 104.45999">Project work</tspan></text>
<text fill="#333333" xml:space="preserve" transform="matrix(1 0 -0 1 0 792)" font-size="10" font-family="Helvetica, Arial, &apos;Nimbus Sans&apos;, &apos;Liberation Sans&apos;, sans-serif"><tspan y="-462" x="359.42 364.98 370.54 376.1 378.88 384.44">$75.00</tspan></text>
<text fill="#333333" xml:space="preserve" transform="matrix(1 0 -0 1 0 792)" font-size="10" font-family="Helvetica, Arial, &apos;Nimbus Sans&apos;, &apos;Liberation Sans&apos;, sans-serif"><tspan y="-462" x="448.88 454.44">16</tspan></text>
<text fill="#333333" xml:space="preserve" transform="matrix(1 0 -0 1 0 792)" font-size="10" font-family="Helvetica, Arial, &apos;Nimbus Sans&apos;, &apos;Liberation Sans&apos;, sans-serif"><tspan y="-462" x="517.52 523.08 528.64 531.42007 536.98007 542.54006 548.10006 550.88009 556.44009">$1,200.00</tspan></text>
<path transform="matrix(1,0,0,-1,0,792)" stroke-width=".4" stroke-linecap="butt" stroke-dasharray="1.5,2" stroke-miterlimit="10" stroke-linejoin="miter" fill="none" stroke="#dddddd" d="M50 440H562"/>
<text fill="#333333" xml:space="preserve" transform="matrix(1 0 -0 1 0 792)" font-size="10" font-family="Helvetica, Arial, &apos;Nimbus Sans&apos;, &apos;Liberation Sans&apos;, sans-serif" font-weight="bold"><tspan y="-424" x="50 57.22 62.780004 68.340007 71.12 76.68 79.46 85.57 91.68">Revisions</tspan></text>
<text fill="#333333" xml:space="preserve" transform="matrix(1 0 -0 1 0 792)" font-size="10" font-family="Helvetica, Arial, &apos;Nimbus Sans&apos;, &apos;Liberation Sans&apos;, sans-serif"><tspan y="-424" x="359.42 364.98 370.54 376.1 378.88 384.44">$75.00</tspan></text>
<text fill="#333333" xml:space="preserve" transform="matrix(1 0 -0 1 0 792)" font-size="10" font-family="Helvetica, Arial, &apos;Nimbus Sans&apos;, &apos;Liberation Sans&apos;, sans-serif"><tspan y="-424" x="454.44">4</tspan></text>
<text fill="#333333" xml:space="preserve" transform="matrix(1 0 -0 1 0 792)" font-size="10" font-family="Helvetica, Arial, &apos;Nimbus Sans&apos;, &apos;Liberation Sans&apos;, sans-serif"><tspan y="-424" x="525.86 531.42 536.98 542.54 548.1 550.88 556.44">$300.00</tspan></text>
<path transform="matrix(1,0,0,-1,0,792)" stroke-width=".4" stroke-linecap="butt" stroke-dasharray="1.5,2" stroke-miterlimit="10" stroke-linejoin="miter" fill="none" stroke="#dddddd" d="M50 402H562"/>
<path transform="matrix(1,0,0,-1,0,792)" stroke-width=".75" stroke-linecap="butt" stroke-miterlimit="10" stroke-linejoin="miter" fill="none" stroke="#4a7c7e" d="M370 390H562"/>
<text fill="#333333" xml:space="preserve" transform="matrix(1 0 -0 1 0 792)" font-size="10" font-family="Helvetica, Arial, &apos;Nimbus Sans&apos;, &apos;Liberation Sans&apos;, sans-serif" font-weight="bold"><tspan y="-376" x="370 376.11 383.88999 389.99998 397.21998">TOTAL</tspan></text>
<text fill="#333333" xml:space="preserve" transform="matrix(1 0 -0 1 0 792)" font-size="10" font-family="Helvetica, Arial, &apos;Nimbus Sans&apos;, &apos;Liberation Sans&apos;, sans-serif" font-weight="bold"><tspan y="-376" x="517.52 523.08 528.64 531.42007 536.98007 542.54006 548.10006 550.88009 556.44009">$1,500.00</tspan></text>
<text fill="#333333" xml:space="preserve" transform="matrix(1 0 -0 1 0 792)" font-size="8" font-family="Helvetica, Arial, &apos;Nimbus Sans&apos;, &apos;Liberation Sans&apos;, sans-serif" font-weight="bold"><tspan y="-346" x="503.784 509.56 515.336 520.224 526 531.776 537.552 542.888 545.112 550.888 556.664">BALANCE DUE</tspan></text>
<text fill="#222222" xml:space="preserve" transform="matrix(1 0 -0 1 0 792)" font-size="16" font-family="Helvetica, Arial, &apos;Nimbus Sans&apos;, &apos;Liberation Sans&apos;, sans-serif" font-weight="bold"><tspan y="-326" x="452.608 464.16 474.832 486.384 490.832 499.728 508.624 513.072 521.968 530.864 539.76 544.208 553.104">USD $1,500.00</tspan></text>
<path transform="matrix(1,0,0,-1,0,792)" stroke-width=".75" stroke-linecap="butt" stroke-miterlimit="10" stroke-linejoin="miter" fill="none" stroke="#4a7c7e" d="M370 314H562"/>
<text fill="#666666" xml:space="preserve" transform="matrix(1 0 -0 1 0 792)" font-size="9" font-family="Helvetica, Arial, &apos;Nimbus Sans&apos;, &apos;Liberation Sans&apos;, sans-serif"><tspan y="-286" x="50 55.499 60.503004 65.507 70.511 75.011 79.511 82.013 84.515 89.519 92.516 95.018 97.52 102.523998 107.52799 110.02999 116.52799 121.53199 124.52899 129.02899 131.53099 140.53099 143.03299 148.03699 153.04099 157.54099 165.03798 170.04198 175.04598 177.54798 180.04998 185.05397 189.55397 192.05597 197.05997 202.06397 207.06797 211.56797 214.06996 216.57196 219.56896 224.57295 229.57695 234.07695 236.57895 241.58295 244.57994 247.08194 253.57994 255.57794 258.07997 263.08396 265.08195 270.08595 272.58796 275.08998 280.09397 283.09098 290.58799 295.08799">Thanks for the work &#x2014; payment by bank transfer within terms.</tspan></text>
</svg>
